<svg width="26" height="24" viewBox="0 0 26 24" fill="none" xmlns="http://www.w3.org/2000/svg">
<path d="M13 23.2121C12.8285 23.2125 12.6611 23.1605 12.52 23.0631C4.52199 17.5881 0.635986 12.4661 0.635986 7.39409C0.638103 5.64272 1.33477 3.96369 2.57318 2.72529C3.81158 1.48688 5.49062 0.790212 7.24199 0.788095C8.36738 0.786576 9.47689 1.05362 10.4783 1.56705C11.4798 2.08047 12.3443 2.82545 13 3.74009C13.6553 2.82529 14.5196 2.08017 15.5209 1.56672C16.5222 1.05327 17.6317 0.786326 18.757 0.788095C20.5084 0.790212 22.1874 1.48688 23.4258 2.72529C24.6642 3.96369 25.3609 5.64272 25.363 7.39409C25.363 12.4661 21.476 17.5941 13.48 23.0631C13.3389 23.1605 13.1714 23.2125 13 23.2121ZM7.24199 2.48809C5.94132 2.48968 4.69438 3.00707 3.77467 3.92678C2.85496 4.84649 2.33757 6.09343 2.33599 7.39409C2.33599 11.7051 5.92399 16.3941 13.001 21.3291C20.077 16.3881 23.664 11.7051 23.664 7.39409C23.6621 6.09334 23.1445 4.8464 22.2247 3.92672C21.3048 3.00704 20.0577 2.48968 18.757 2.48809C17.6932 2.48709 16.653 2.80148 15.7678 3.39152C14.8827 3.98157 14.1923 4.82078 13.784 5.80309C13.7196 5.958 13.6108 6.09037 13.4713 6.18348C13.3317 6.2766 13.1677 6.3263 13 6.3263C12.8322 6.3263 12.6682 6.2766 12.5287 6.18348C12.3892 6.09037 12.2804 5.958 12.216 5.80309C11.8074 4.82078 11.1168 3.98161 10.2315 3.39158C9.3462 2.80156 8.30589 2.48716 7.24199 2.48809Z" fill="white"/>
</svg>
