<svg width="19" height="25" viewBox="0 0 19 25" fill="none" xmlns="http://www.w3.org/2000/svg">
<path d="M5.08704 5.58798C5.04032 5.54152 5.00323 5.48628 4.97794 5.42545C4.95264 5.36461 4.93964 5.29938 4.93964 5.23349C4.93964 5.1676 4.95264 5.10236 4.97794 5.04152C5.00323 4.98068 5.04032 4.92545 5.08704 4.87898L9.30402 0.713989L13.621 4.87498C13.6684 4.92095 13.7063 4.9758 13.7325 5.03641C13.7588 5.09701 13.7728 5.16219 13.7738 5.22821C13.7748 5.29423 13.7628 5.3598 13.7385 5.42119C13.7142 5.48258 13.678 5.53858 13.632 5.58598C13.5861 5.63339 13.5312 5.67129 13.4706 5.69749C13.41 5.7237 13.3448 5.73772 13.2788 5.73874C13.2128 5.73976 13.1472 5.72777 13.0858 5.70345C13.0244 5.67912 12.9684 5.64295 12.921 5.59698L9.80603 2.59698V15.412C9.80603 15.5446 9.75334 15.6718 9.65958 15.7655C9.56581 15.8593 9.43864 15.912 9.30603 15.912C9.17342 15.912 9.04625 15.8593 8.95248 15.7655C8.85872 15.6718 8.80603 15.5446 8.80603 15.412V2.61499L5.79102 5.59299C5.69672 5.68515 5.56984 5.73633 5.43799 5.7354C5.30614 5.73446 5.18001 5.68147 5.08704 5.58798ZM12.987 7.88799C12.8544 7.88799 12.7273 7.94067 12.6335 8.03444C12.5397 8.12821 12.487 8.25538 12.487 8.38799C12.487 8.52059 12.5397 8.64776 12.6335 8.74153C12.7273 8.8353 12.8544 8.88799 12.987 8.88799H16.763V23.217H1.86304V8.88998H5.82803C5.96064 8.88998 6.08781 8.83731 6.18158 8.74355C6.27535 8.64978 6.32803 8.52259 6.32803 8.38998C6.32803 8.25738 6.27535 8.13021 6.18158 8.03644C6.08781 7.94267 5.96064 7.88998 5.82803 7.88998H0.863037V24.225H17.763V7.88698L12.987 7.88799Z" fill="white" stroke="white" stroke-width="0.7"/>
</svg>
